# AST/ASF file generated using VICON BodyLanguage
# -----------------------------------------------
:version 1.10
:name VICON
:units
  mass 1.0
  length 0.45
  angle deg
:documentation
   .ast/.asf automatically generated from VICON data using
   VICON BodyBuilder and BodyLanguage model FoxedUp or BRILLIANT.MOD
:root
   order TX TY TZ RX RY RZ
   axis XYZ
   position 0 0 0  
   orientation 0 0 0 
:bonedata
  begin
     id 1 
     name lhipjoint
     direction 0.621036 -0.695554 0.361275 
     length 2.46325 
     axis 0 0 0  XYZ
  end
  begin
     id 2 
     name lfemur
     direction 0.34202 -0.939693 0  
     length 6.54784  
     axis 0 0 20  XYZ
    dof rx ry rz
    limits (-160.0 20.0)
           (-70.0 70.0)
           (-60.0 70.0)
  end
  begin
     id 3 
     name ltibia
     direction 0.34202 -0.939693 0   
     length 7.84737   
     axis 0 0 20   XYZ
    dof rx
    limits (-10.0 170.0)
  end
  begin
     id 4 
     name lfoot
     direction 0.0790693 -0.217241 0.97291   
     length 2.59747   
     axis -90 7.62852e-016 20   XYZ
    dof rx rz
    limits (-45.0 90.0)
           (-70.0 20.0)
  end
  begin
     id 5 
     name ltoes
     direction 1.53572e-011 -4.21898e-011 1   
     length 1.29919   
     axis -90 7.62852e-016 20   XYZ
    dof rx
    limits (-90.0 20.0)
  end
  begin
     id 6 
     name rhipjoint
     direction -0.602353 -0.708375 0.367935   
     length 2.41867  
     axis 0 0 0  XYZ 
  end
  begin
     id 7 
     name rfemur
     direction -0.34202 -0.939693 0   
     length 6.92065   
     axis 0 0 -20   XYZ
    dof rx ry rz
    limits (-160.0 20.0)
           (-70.0 70.0)
           (-70.0 60.0)
  end
  begin
     id 8 
     name rtibia
     direction -0.34202 -0.939693 0   
     length 7.88883   
     axis 0 0 -20   XYZ
    dof rx
    limits (-10.0 170.0)
 end
 begin
     id 9 
     name rfoot
     direction -0.0768692 -0.211196 0.974416   
     length 2.43714  
     axis -90 -7.62852e-016 -20   XYZ
    dof rx rz
    limits (-45.0 90.0)
           (-20.0 70.0)
  end
  begin
     id 10 
     name rtoes
     direction -1.53575e-011 -4.21933e-011 1   
     length 1.22113   
     axis -90 -7.62852e-016 -20   XYZ
    dof rx
    limits (-90.0 20.0)
  end
  begin
     id 11 
     name lowerback
     direction 0.0197937 0.98943 -0.143655   
     length 2.16931   
     axis 0 0 0   XYZ
    dof rx ry rz
    limits (-20.0 45.0)
           (-30.0 30.0)
           (-30.0 30.0)
  end
  begin
     id 12 
     name upperback
     direction -0.00183968 0.999975 0.00684288   
     length 2.17221   
     axis 0 0 0   XYZ
    dof rx ry rz
    limits (-20.0 45.0)
           (-30.0 30.0)
           (-30.0 30.0)
  end
  begin
     id 13 
     name thorax
     direction -0.00950244 0.997208 0.0740685   
     length 2.22549   
     axis 0 0 0   XYZ
    dof rx ry rz
    limits (-20.0 45.0)
           (-30.0 30.0)
           (-30.0 30.0)
  end
  begin
     id 14 
     name lowerneck
     direction 0.0218238 0.996215 0.0841425   
     length 1.77269   
     axis 0 0 0   XYZ
    dof rx ry rz
    limits (-20.0 45.0)
           (-30.0 30.0)
           (-30.0 30.0)
  end
  begin
     id 15 
     name upperneck
     direction -0.00430652 0.994214 -0.107332   
     length 1.76534   
     axis 0 0 0   XYZ
    dof rx ry rz
    limits (-20.0 45.0)
           (-30.0 30.0)
           (-30.0 30.0)
  end
  begin
     id 16
     name head
     direction -0.00328946 0.998959 -0.0454998  
     length 1.82634  
     axis 0 0 0   XYZ
    dof rx ry rz
    limits (-20.0 45.0)
           (-30.0 30.0)
           (-30.0 30.0)
  end
  begin
     id 17 
     name lclavicle
     direction 0.970962 0.239191 0.00450212  
     length 3.84872  
     axis 0 0 0   XYZ
    dof ry rz
    limits (-20.0 10.0)
           (0.0 20.0)
  end
  begin
     id 18 
     name lhumerus
     direction 1 -4.48966e-011 5.74696e-028   
     length 5.22771   
     axis 180 -30 -90   XYZ
    dof rx ry rz
    limits (-60.0 90.0)
           (-90.0 90.0)
           (-90.0 90.0)
  end
  begin
     id 19
     name lradius
     direction 1 -4.4896e-011 4.25109e-027   
     length 3.45251   
     axis 180 -30 -90   XYZ
    dof rx
    limits (-10.0 170.0)
  end
  begin
     id 20
     name lwrist
     direction 1 -4.48971e-011 1.15382e-027   
     length 1.72626   
     axis -5.52449e-016 90 90   XYZ
    dof ry
    limits (-180.0 0.0)
 end
  begin
     id 21 
     name lhand
     direction 1 -4.49034e-011 2.30765e-027   
     length 0.552119   
     axis -1.47248e-015 90 90   XYZ
    dof rx rz
    limits (-90.0 90.0)
           (-45.0 45.0)
  end
  begin
     id 22 
     name lfingers
     direction 1 -4.48951e-011 4.61529e-027   
     length 0.445133   
     axis -2.94495e-015 90 90   XYZ
    dof rx
    limits (0.0 90.0)
  end
  begin
     id 23
     name lthumb
     direction 0.707107 -6.34991e-011 0.707107   
     length 0.639124   
     axis -90 45 2.85299e-015   XYZ
    dof rx rz
    limits (-45.0 45.0)
           (-45.0 45.0)
  end
  begin
     id 24 
     name rclavicle
     direction -0.97424 0.222511 -0.0366699   
     length 3.73439  
     axis 0 0 0   XYZ 
    dof ry rz
    limits (-10.0 20.0)
           (-20.0 0.0)
  end
  begin
     id 25 
     name rhumerus
     direction -1 -4.48956e-011 -4.97258e-028  
     length 5.2398   
     axis 180 30 90   XYZ
    dof rx ry rz
    limits (-90.0 60.0)
           (-90.0 90.0)
           (-90.0 90.0)
  end
  begin
     id 26 
     name rradius
     direction -1 -4.4897e-011 -1.72611e-027   
     length 3.48042   
     axis 180 30 90   XYZ
    dof rx
    limits (-10.0 170.0)
  end
  begin
     id 27 
     name rwrist
     direction -1 -4.48976e-011 1.15382e-027   
     length 1.74021   
     axis -5.52449e-016 -90 -90   XYZ
    dof ry
    limits (-180.0 0.0)
  end
  begin
     id 28
     name rhand
     direction -1 -4.48963e-011 2.30765e-027   
     length 0.618713   
     axis -1.47248e-015 -90 -90   XYZ
    dof rx rz
    limits (-90.0 90.0)
           (-45.0 45.0)
  end
  begin
     id 29
     name rfingers
     direction -1 -4.4888e-011 4.61529e-027   
     length 0.498823   
     axis -2.94495e-015 -90 -90   XYZ
    dof rx
    limits (0.0 90.0)
  end
  begin
     id 30
     name rthumb
     direction -0.707107 -6.34968e-011 0.707107   
     length 0.716213   
     axis -90 -45 -2.85299e-015   XYZ
    dof rx rz
    limits (-45.0 45.0)
           (-45.0 45.0)
  end
:hierarchy
  begin
    root lhipjoint rhipjoint lowerback
    lhipjoint lfemur
    lfemur ltibia
    ltibia lfoot
    lfoot ltoes
    rhipjoint rfemur
    rfemur rtibia
    rtibia rfoot
    rfoot rtoes
    lowerback upperback
    upperback thorax
    thorax lowerneck lclavicle rclavicle
    lowerneck upperneck
    upperneck head
    lclavicle lhumerus
    lhumerus lradius
    lradius lwrist
    lwrist lhand lthumb
    lhand lfingers
    rclavicle rhumerus
    rhumerus rradius
    rradius rwrist
    rwrist rhand rthumb
    rhand rfingers
  end

#!OML:ASF G:\JayActor3\Patient Classification 1\Patient 1\Session 5\male.ASF
:FULLY-SPECIFIED
:DEGREES
136
root -38.8344 17.0577 -21.1985 -0.103683 47.6597 -6.83365
lowerback 1.80657 -1.2211 3.56018
upperback 1.05867 -1.56655 0.553496
thorax -0.00659112 -0.767549 -1.39788
lowerneck -6.16425 0.029679 1.40695
upperneck 7.87446 -0.233654 1.73307
head 3.64587 0.00907253 0.31176
rclavicle -1.78906e-014 -1.86858e-014
rhumerus -32.3775 -9.74651 -87.0282
rradius 22.2597
rwrist 8.45709
rhand -18.9731 -6.93814
rfingers 7.12502
rthumb 7.33109 -36.7911
lclavicle -1.78906e-014 -1.86858e-014
lhumerus -28.2927 24.0803 79.0412
lradius 12.0825
lwrist 1.82765
lhand -20.9538 17.3909
lfingers 7.12502
lthumb 5.41891 47.3016
rfemur -9.60137 4.71182 28.4814
rtibia 28.5037
rfoot -25.05 -15.9982
rtoes -0.068097
lfemur -2.0228 7.28701 -18.2125
ltibia 14.7525
lfoot -17.8737 -1.50752
ltoes -0.278812
137
root -38.8333 17.0576 -21.1979 -0.0987976 47.6521 -6.83311
lowerback 1.81697 -1.22316 3.55877
upperback 1.0514 -1.56869 0.553925
thorax -0.0199366 -0.768938 -1.39627
lowerneck -6.16785 0.0241802 1.40492
upperneck 7.87739 -0.241631 1.7408
head 3.64766 0.00545858 0.314279
rclavicle 1.50579e-014 1.31198e-014
rhumerus -32.3835 -9.74247 -87.0221
rradius 22.2558
rwrist 8.46182
rhand -18.9706 -6.93287
rfingers 7.12502
rthumb 7.33356 -36.7858
lclavicle 1.50579e-014 1.31198e-014
lhumerus -28.2927 24.129 79.009
lradius 12.059
lwrist 1.74346
lhand -20.928 17.3761
lfingers 7.12502
lthumb 5.44391 47.2862
rfemur -9.60396 4.70869 28.4787
rtibia 28.5086
rfoot -25.0231 -16.0176
rtoes -0.198758
lfemur -2.02374 7.3095 -18.2109
ltibia 14.7533
lfoot -17.8671 -1.52196
ltoes -0.321103
138
root -38.8323 17.0575 -21.1972 -0.0933104 47.6446 -6.83195
lowerback 1.82769 -1.22516 3.55709
upperback 1.04421 -1.57075 0.554008
thorax -0.0333769 -0.770284 -1.39486
lowerneck -6.17152 0.0190202 1.40326
upperneck 7.87988 -0.249193 1.74862
head 3.6493 0.00206068 0.316782
rclavicle -5.42682e-014 9.93923e-015
rhumerus -32.3896 -9.74086 -87.016
rradius 22.2509
rwrist 8.46872
rhand -18.9678 -6.92573
rfingers 7.12502
rthumb 7.33621 -36.7785
lclavicle -5.42682e-014 9.93923e-015
lhumerus -28.2933 24.1652 78.9824
lradius 12.0414
lwrist 1.67345
lhand -20.9047 17.3629
lfingers 7.12502
lthumb 5.46632 47.2724
rfemur -9.60642 4.70492 28.4754
rtibia 28.5132
rfoot -24.9965 -16.0358
rtoes -0.329594
lfemur -2.02438 7.33034 -18.2099
ltibia 14.7538
lfoot -17.8607 -1.53509
ltoes -0.360105
139
root -38.8312 17.0574 -21.1965 -0.0869617 47.6372 -6.83051
lowerback 1.83904 -1.2272 3.55451
upperback 1.03663 -1.57283 0.554497
thorax -0.0475351 -0.771661 -1.39251
lowerneck -6.17462 0.0136823 1.40064
upperneck 7.8814 -0.256865 1.75635
head 3.65048 -0.00144153 0.319416
rclavicle -3.95581e-014 -1.07344e-014
rhumerus -32.3965 -9.73701 -87.0108
rradius 22.2465
rwrist 8.47354
rhand -18.9649 -6.91792
rfingers 7.12502
rthumb 7.33901 -36.7706
lclavicle -3.95581e-014 -1.07344e-014
lhumerus -28.2943 24.1988 78.9578
lradius 12.0258
lwrist 1.6088
lhand -20.8828 17.3496
lfingers 7.12502
lthumb 5.48755 47.2586
rfemur -9.60957 4.70052 28.472
rtibia 28.5182
rfoot -24.9707 -16.0527
rtoes -0.459511
lfemur -2.02531 7.34947 -18.2092
ltibia 14.7539
lfoot -17.8543 -1.5467
ltoes -0.400403
140
root -38.8302 17.0573 -21.1957 -0.0809028 47.6296 -6.82971
lowerback 1.8501 -1.22906 3.5525
upperback 1.02958 -1.5747 0.554804
thorax -0.0609925 -0.77291 -1.39068
lowerneck -6.17848 0.00917733 1.39876
upperneck 7.88196 -0.263448 1.7635
head 3.65148 -0.00441709 0.321775
rclavicle 9.34288e-015 -2.38542e-015
rhumerus -32.4027 -9.73448 -87.0065
rradius 22.2415
rwrist 8.47976
rhand -18.9623 -6.91109
rfingers 7.12502
rthumb 7.34157 -36.7637
lclavicle 9.34288e-015 -2.38542e-015
lhumerus -28.2945 24.2294 78.9345
lradius 12.0111
lwrist 1.54771
lhand -20.8625 17.3338
lfingers 7.12502
lthumb 5.50708 47.2423
rfemur -9.61282 4.69606 28.4691
rtibia 28.5234
rfoot -24.9457 -16.0686
rtoes -0.588611
lfemur -2.02597 7.36759 -18.2078
ltibia 14.7537
lfoot -17.8484 -1.55737
ltoes -0.436122
